<mxfile host="app.diagrams.net" modified="2023-09-11T19:44:47.668Z" agent="Mozilla/5.0 (Windows NT 10.0; Win64; x64) AppleWebKit/537.36 (KHTML, like Gecko) Chrome/116.0.0.0 Safari/537.36" etag="1qhZfo-hWXOOGnl2eFBW" version="21.7.4" type="device">
  <diagram name="Página-1" id="Y5sTAX3acpnLy9blmKT6">
    <mxGraphModel dx="500" dy="273" grid="1" gridSize="10" guides="1" tooltips="1" connect="1" arrows="1" fold="1" page="1" pageScale="1" pageWidth="827" pageHeight="1169" math="0" shadow="0">
      <root>
        <mxCell id="0" />
        <mxCell id="1" parent="0" />
        <mxCell id="lv_M16o87X_PxKNdlSiO-19" style="edgeStyle=orthogonalEdgeStyle;rounded=0;orthogonalLoop=1;jettySize=auto;html=1;exitX=0.5;exitY=1;exitDx=0;exitDy=0;entryX=0.5;entryY=0;entryDx=0;entryDy=0;" edge="1" parent="1" source="lv_M16o87X_PxKNdlSiO-1" target="lv_M16o87X_PxKNdlSiO-16">
          <mxGeometry relative="1" as="geometry" />
        </mxCell>
        <mxCell id="lv_M16o87X_PxKNdlSiO-1" value="Cliente" style="swimlane;fontStyle=1;align=center;verticalAlign=top;childLayout=stackLayout;horizontal=1;startSize=26;horizontalStack=0;resizeParent=1;resizeParentMax=0;resizeLast=0;collapsible=1;marginBottom=0;whiteSpace=wrap;html=1;" vertex="1" parent="1">
          <mxGeometry x="310" y="190" width="246" height="168" as="geometry" />
        </mxCell>
        <mxCell id="lv_M16o87X_PxKNdlSiO-2" value="+ id_cliente: int&lt;br&gt;+ nome: string&lt;br&gt;+ cpf: int&lt;br&gt;+ email: string&lt;br&gt;+ senha: string&lt;br&gt;+ endereço: string&lt;br&gt;+número: int&lt;br&gt;+ cep: int" style="text;strokeColor=none;fillColor=none;align=left;verticalAlign=top;spacingLeft=4;spacingRight=4;overflow=hidden;rotatable=0;points=[[0,0.5],[1,0.5]];portConstraint=eastwest;whiteSpace=wrap;html=1;" vertex="1" parent="lv_M16o87X_PxKNdlSiO-1">
          <mxGeometry y="26" width="246" height="134" as="geometry" />
        </mxCell>
        <mxCell id="lv_M16o87X_PxKNdlSiO-3" value="" style="line;strokeWidth=1;fillColor=none;align=left;verticalAlign=middle;spacingTop=-1;spacingLeft=3;spacingRight=3;rotatable=0;labelPosition=right;points=[];portConstraint=eastwest;strokeColor=inherit;" vertex="1" parent="lv_M16o87X_PxKNdlSiO-1">
          <mxGeometry y="160" width="246" height="8" as="geometry" />
        </mxCell>
        <mxCell id="lv_M16o87X_PxKNdlSiO-5" value="VeighFood" style="swimlane;fontStyle=1;align=center;verticalAlign=top;childLayout=stackLayout;horizontal=1;startSize=26;horizontalStack=0;resizeParent=1;resizeParentMax=0;resizeLast=0;collapsible=1;marginBottom=0;whiteSpace=wrap;html=1;" vertex="1" parent="1">
          <mxGeometry x="1450" y="600" width="246" height="240" as="geometry" />
        </mxCell>
        <mxCell id="lv_M16o87X_PxKNdlSiO-6" value="+ cliente: string&lt;br&gt;+ produto: string&lt;br&gt;+ pedidos: string&lt;br&gt;+ categoria: string&lt;br&gt;+ quantidade: int" style="text;strokeColor=none;fillColor=none;align=left;verticalAlign=top;spacingLeft=4;spacingRight=4;overflow=hidden;rotatable=0;points=[[0,0.5],[1,0.5]];portConstraint=eastwest;whiteSpace=wrap;html=1;" vertex="1" parent="lv_M16o87X_PxKNdlSiO-5">
          <mxGeometry y="26" width="246" height="94" as="geometry" />
        </mxCell>
        <mxCell id="lv_M16o87X_PxKNdlSiO-7" value="" style="line;strokeWidth=1;fillColor=none;align=left;verticalAlign=middle;spacingTop=-1;spacingLeft=3;spacingRight=3;rotatable=0;labelPosition=right;points=[];portConstraint=eastwest;strokeColor=inherit;" vertex="1" parent="lv_M16o87X_PxKNdlSiO-5">
          <mxGeometry y="120" width="246" height="8" as="geometry" />
        </mxCell>
        <mxCell id="lv_M16o87X_PxKNdlSiO-8" value="+ cliente(): email, nome, cpf&lt;br&gt;+ produto() : ingredientes, ml, medidas&lt;br&gt;+ pedidos(): produto, nome&lt;br&gt;+ categoria(): queijo, leite, iorgute&lt;br&gt;+ quantidade(): unidades" style="text;strokeColor=none;fillColor=none;align=left;verticalAlign=top;spacingLeft=4;spacingRight=4;overflow=hidden;rotatable=0;points=[[0,0.5],[1,0.5]];portConstraint=eastwest;whiteSpace=wrap;html=1;" vertex="1" parent="lv_M16o87X_PxKNdlSiO-5">
          <mxGeometry y="128" width="246" height="112" as="geometry" />
        </mxCell>
        <mxCell id="lv_M16o87X_PxKNdlSiO-9" value="Produtos" style="swimlane;fontStyle=1;align=center;verticalAlign=top;childLayout=stackLayout;horizontal=1;startSize=26;horizontalStack=0;resizeParent=1;resizeParentMax=0;resizeLast=0;collapsible=1;marginBottom=0;whiteSpace=wrap;html=1;" vertex="1" parent="1">
          <mxGeometry x="50" y="190" width="246" height="128" as="geometry" />
        </mxCell>
        <mxCell id="lv_M16o87X_PxKNdlSiO-10" value="+id_produto: int&lt;br&gt;+ descrição: string&lt;br&gt;+ nome: string&lt;br&gt;+ preço: decimal&lt;br&gt;+ imagem: string" style="text;strokeColor=none;fillColor=none;align=left;verticalAlign=top;spacingLeft=4;spacingRight=4;overflow=hidden;rotatable=0;points=[[0,0.5],[1,0.5]];portConstraint=eastwest;whiteSpace=wrap;html=1;" vertex="1" parent="lv_M16o87X_PxKNdlSiO-9">
          <mxGeometry y="26" width="246" height="94" as="geometry" />
        </mxCell>
        <mxCell id="lv_M16o87X_PxKNdlSiO-11" value="" style="line;strokeWidth=1;fillColor=none;align=left;verticalAlign=middle;spacingTop=-1;spacingLeft=3;spacingRight=3;rotatable=0;labelPosition=right;points=[];portConstraint=eastwest;strokeColor=inherit;" vertex="1" parent="lv_M16o87X_PxKNdlSiO-9">
          <mxGeometry y="120" width="246" height="8" as="geometry" />
        </mxCell>
        <mxCell id="lv_M16o87X_PxKNdlSiO-13" value="Pedido" style="swimlane;fontStyle=1;align=center;verticalAlign=top;childLayout=stackLayout;horizontal=1;startSize=26;horizontalStack=0;resizeParent=1;resizeParentMax=0;resizeLast=0;collapsible=1;marginBottom=0;whiteSpace=wrap;html=1;" vertex="1" parent="1">
          <mxGeometry x="50" y="330" width="246" height="128" as="geometry" />
        </mxCell>
        <mxCell id="lv_M16o87X_PxKNdlSiO-14" value="+ id_pedido: int&lt;br&gt;+ nome: string&lt;br&gt;+ preço: decimal&lt;br&gt;+ endereço: string&lt;br&gt;+ número: int&lt;br&gt;+ cep: int&amp;nbsp;" style="text;strokeColor=none;fillColor=none;align=left;verticalAlign=top;spacingLeft=4;spacingRight=4;overflow=hidden;rotatable=0;points=[[0,0.5],[1,0.5]];portConstraint=eastwest;whiteSpace=wrap;html=1;" vertex="1" parent="lv_M16o87X_PxKNdlSiO-13">
          <mxGeometry y="26" width="246" height="94" as="geometry" />
        </mxCell>
        <mxCell id="lv_M16o87X_PxKNdlSiO-15" value="" style="line;strokeWidth=1;fillColor=none;align=left;verticalAlign=middle;spacingTop=-1;spacingLeft=3;spacingRight=3;rotatable=0;labelPosition=right;points=[];portConstraint=eastwest;strokeColor=inherit;" vertex="1" parent="lv_M16o87X_PxKNdlSiO-13">
          <mxGeometry y="120" width="246" height="8" as="geometry" />
        </mxCell>
        <mxCell id="lv_M16o87X_PxKNdlSiO-16" value="Categoria" style="swimlane;fontStyle=1;align=center;verticalAlign=top;childLayout=stackLayout;horizontal=1;startSize=26;horizontalStack=0;resizeParent=1;resizeParentMax=0;resizeLast=0;collapsible=1;marginBottom=0;whiteSpace=wrap;html=1;" vertex="1" parent="1">
          <mxGeometry x="310" y="370" width="246" height="128" as="geometry" />
        </mxCell>
        <mxCell id="lv_M16o87X_PxKNdlSiO-17" value="+ id_categoria: int&lt;br&gt;+ nome: string" style="text;strokeColor=none;fillColor=none;align=left;verticalAlign=top;spacingLeft=4;spacingRight=4;overflow=hidden;rotatable=0;points=[[0,0.5],[1,0.5]];portConstraint=eastwest;whiteSpace=wrap;html=1;" vertex="1" parent="lv_M16o87X_PxKNdlSiO-16">
          <mxGeometry y="26" width="246" height="94" as="geometry" />
        </mxCell>
        <mxCell id="lv_M16o87X_PxKNdlSiO-18" value="" style="line;strokeWidth=1;fillColor=none;align=left;verticalAlign=middle;spacingTop=-1;spacingLeft=3;spacingRight=3;rotatable=0;labelPosition=right;points=[];portConstraint=eastwest;strokeColor=inherit;" vertex="1" parent="lv_M16o87X_PxKNdlSiO-16">
          <mxGeometry y="120" width="246" height="8" as="geometry" />
        </mxCell>
      </root>
    </mxGraphModel>
  </diagram>
</mxfile>
